<svg width="252" height="133" viewBox="0 0 252 133" fill="none" xmlns="http://www.w3.org/2000/svg">
<path d="M162.68 130.002V0.449219H181.594V48.5886H182.732C183.829 46.5644 185.41 44.2238 187.477 41.567C189.543 38.9101 192.411 36.5907 196.08 34.6086C199.749 32.5843 204.599 31.5722 210.629 31.5722C218.473 31.5722 225.474 33.5543 231.631 37.5185C237.788 41.4826 242.617 47.1969 246.117 54.6614C249.66 62.1258 251.431 71.1085 251.431 81.6093C251.431 92.1102 249.681 101.114 246.18 108.621C242.68 116.085 237.872 121.841 231.758 125.89C225.643 129.896 218.663 131.899 210.819 131.899C204.915 131.899 200.086 130.908 196.333 128.926C192.622 126.944 189.712 124.625 187.603 121.968C185.495 119.311 183.871 116.95 182.732 114.883H181.151V130.002H162.68ZM181.214 81.4196C181.214 88.2514 182.205 94.2399 184.187 99.3848C186.17 104.53 189.037 108.557 192.791 111.467C196.544 114.335 201.141 115.769 206.581 115.769C212.232 115.769 216.955 114.272 220.751 111.277C224.546 108.241 227.414 104.129 229.354 98.942C231.336 93.7549 232.327 87.9141 232.327 81.4196C232.327 75.0094 231.357 69.2529 229.417 64.1501C227.519 59.0473 224.652 55.0199 220.814 52.0678C217.018 49.1158 212.274 47.6397 206.581 47.6397C201.098 47.6397 196.46 49.0525 192.664 51.878C188.911 54.7036 186.064 58.6466 184.124 63.7073C182.184 68.7679 181.214 74.672 181.214 81.4196Z" fill="white"/>
<path d="M95.1454 132.151C88.9883 132.151 83.4216 131.012 78.4453 128.735C73.469 126.415 69.5259 123.063 66.616 118.677C63.7483 114.291 62.3145 108.914 62.3145 102.546C62.3145 97.0635 63.3688 92.5511 65.4774 89.0086C67.586 85.4662 70.4326 82.6617 74.0172 80.5953C77.6018 78.5289 81.6082 76.9685 86.0362 75.9142C90.4643 74.8599 94.9767 74.0586 99.5735 73.5104C105.393 72.8357 110.116 72.2874 113.743 71.8657C117.37 71.4018 120.006 70.6638 121.651 69.6517C123.295 68.6395 124.118 66.9948 124.118 64.7175V64.2747C124.118 58.7502 122.557 54.4697 119.436 51.4333C116.358 48.397 111.761 46.8788 105.646 46.8788C99.2783 46.8788 94.2598 48.2915 90.5908 51.1171C86.964 53.9004 84.4548 57.0001 83.0631 60.416L65.2876 56.3675C67.3962 50.4634 70.4747 45.6979 74.5233 42.0711C78.614 38.4022 83.3161 35.7453 88.6298 34.1006C93.9435 32.4137 99.5313 31.5703 105.393 31.5703C109.273 31.5703 113.385 32.0342 117.729 32.962C122.114 33.8476 126.205 35.4923 130.001 37.8961C133.838 40.2999 136.98 43.7369 139.426 48.2072C141.872 52.6352 143.095 58.3917 143.095 65.4766V130H124.624V116.716H123.865C122.642 119.162 120.807 121.565 118.361 123.927C115.915 126.289 112.773 128.25 108.936 129.81C105.098 131.37 100.501 132.151 95.1454 132.151ZM99.2572 116.969C104.486 116.969 108.957 115.935 112.668 113.869C116.421 111.803 119.268 109.104 121.208 105.772C123.19 102.398 124.181 98.7926 124.181 94.9549V82.4298C123.506 83.1045 122.199 83.7371 120.259 84.3275C118.361 84.8758 116.189 85.3608 113.743 85.7825C111.297 86.162 108.915 86.5205 106.595 86.8579C104.276 87.1531 102.336 87.4061 100.775 87.617C97.1064 88.0809 93.7537 88.861 90.7173 89.9575C87.7231 91.054 85.3193 92.6354 83.5059 94.7019C81.7347 96.7261 80.8491 99.4251 80.8491 102.799C80.8491 107.48 82.5781 111.022 86.0362 113.426C89.4943 115.788 93.9013 116.969 99.2572 116.969Z" fill="white"/>
<path d="M53.0716 32.8376V48.0195H-0.00195312V32.8376H53.0716ZM14.2311 9.55859H33.1453V101.473C33.1453 105.142 33.6935 107.904 34.79 109.759C35.8865 111.573 37.2992 112.817 39.0283 113.492C40.7995 114.124 42.7183 114.44 44.7848 114.44C46.303 114.44 47.6314 114.335 48.77 114.124C49.9087 113.913 50.7943 113.745 51.4269 113.618L54.8428 129.243C53.7463 129.665 52.186 130.086 50.1617 130.508C48.1374 130.972 45.6071 131.225 42.5707 131.267C37.5944 131.351 32.9555 130.466 28.654 128.61C24.3524 126.755 20.8732 123.887 18.2164 120.007C15.5595 116.127 14.2311 111.256 14.2311 105.395V9.55859Z" fill="white"/>
</svg>
